<svg width="180" height="180" viewBox="0 0 180 180" fill="none" xmlns="http://www.w3.org/2000/svg">
<g clip-path="url(#clip0_13_190)">
<g clip-path="url(#clip1_13_190)">
<mask id="mask0_13_190" style="mask-type:alpha" maskUnits="userSpaceOnUse" x="0" y="0" width="180" height="180">
<circle cx="90" cy="90" r="90" fill="#F578A5"/>
</mask>
<g mask="url(#mask0_13_190)">
<circle cx="90" cy="90" r="90" fill="#56B280"/>
<path d="M48.6002 178.696V180.664H50.569H134.047H136.016V178.696V143.668C136.016 140.451 133.466 137.813 130.251 137.703L54.7723 135.13C51.3981 135.015 48.6002 137.719 48.6002 141.095V178.696Z" fill="white" stroke="white" stroke-width="3.9375"/>
<g clip-path="url(#clip2_13_190)">
<path d="M65.9414 63.1967C84.2828 37.6947 76.3933 16.937 76.4154 16.9123C76.0266 15.8728 76.5542 14.715 77.5937 14.3261C78.118 14.13 78.7005 14.1616 79.2006 14.4132C112.304 30.2532 126.549 50.7013 129.276 69.1887C130.361 76.3714 129.683 83.7101 127.301 90.5729C125.119 96.9051 121.483 102.638 116.686 107.312C107.459 116.224 94.5632 120.332 81.8361 116.167C78.5805 115.105 75.5085 113.547 72.7283 111.547C67.1515 107.545 62.9212 101.943 60.5973 95.4837C58.1316 88.5754 58.0531 81.04 60.3747 74.0818C61.6568 70.1873 63.5348 66.5155 65.9414 63.1967Z" fill="white"/>
<path d="M76.819 17.5707C76.0129 16.8081 75.9773 15.5362 76.7399 14.7301C77.5025 13.9239 78.7744 13.8884 79.5806 14.651C79.64 14.7071 79.6955 14.7667 79.7476 14.8297C79.8215 14.8961 95.8039 31.6491 98.0872 64.029L98.1109 64.3326C98.6039 71.9006 98.3605 79.4986 97.3845 87.0195L108.313 78.6444C109.228 78.0167 110.479 78.25 111.107 79.1652C111.675 79.9939 111.544 81.1146 110.8 81.7898L96.5174 92.7017C93.3199 111.5 82.0484 138.093 96.9697 154.737C97.6884 155.583 97.5854 156.851 96.7396 157.57C95.9346 158.254 94.7375 158.198 93.9999 157.442C76.1068 137.498 89.1268 112.79 92.69 91.4247L92.7369 91.1252C94.1858 82.6228 94.6824 73.9854 94.2174 65.3732L81.3716 55.9612C80.4554 55.3349 80.2204 54.0844 80.8467 53.1681C81.473 52.2519 82.7234 52.0169 83.6397 52.6432C83.6776 52.6691 83.7148 52.6963 83.7507 52.7249L93.704 60.0526C90.5992 31.9842 76.8773 17.638 76.819 17.5707Z" fill="#56B280"/>
</g>
</g>
</g>
</g>
<defs>
<clipPath id="clip0_13_190">
<rect width="180" height="180" fill="white"/>
</clipPath>
<clipPath id="clip1_13_190">
<rect width="180" height="180" fill="white"/>
</clipPath>
<clipPath id="clip2_13_190">
<rect width="110.46" height="110.46" fill="white" transform="translate(10.6094 88.1742) rotate(-48)"/>
</clipPath>
</defs>
</svg>
